<svg width="14" height="11" viewBox="0 0 14 11" fill="none" xmlns="http://www.w3.org/2000/svg">
<path d="M0.924805 2.66675L6.18481 6.17342C6.40391 6.3196 6.66141 6.39761 6.9248 6.39761C7.1882 6.39761 7.4457 6.3196 7.6648 6.17342L12.9248 2.66675M2.25814 10.0001H11.5915C11.9451 10.0001 12.2842 9.85961 12.5343 9.60956C12.7843 9.35951 12.9248 9.02037 12.9248 8.66675V2.00008C12.9248 1.64646 12.7843 1.30732 12.5343 1.05727C12.2842 0.807224 11.9451 0.666748 11.5915 0.666748H2.25814C1.90452 0.666748 1.56538 0.807224 1.31533 1.05727C1.06528 1.30732 0.924805 1.64646 0.924805 2.00008V8.66675C0.924805 9.02037 1.06528 9.35951 1.31533 9.60956C1.56538 9.85961 1.90452 10.0001 2.25814 10.0001Z" stroke="#FDC003" stroke-width="1.33333" stroke-linecap="square"/>
</svg>
