<svg width="23" height="23" viewBox="0 0 23 23" fill="none" xmlns="http://www.w3.org/2000/svg">
<path d="M2.5 22.5C1.8125 22.5 1.22396 22.2552 0.734375 21.7656C0.244792 21.276 0 20.6875 0 20V2.5C0 1.8125 0.244792 1.22396 0.734375 0.734375C1.22396 0.244792 1.8125 0 2.5 0H20C20.6875 0 21.276 0.244792 21.7656 0.734375C22.2552 1.22396 22.5 1.8125 22.5 2.5V20C22.5 20.6875 22.2552 21.276 21.7656 21.7656C21.276 22.2552 20.6875 22.5 20 22.5H2.5ZM2.5 20H20V16.25H16.25C15.625 17.0417 14.8802 17.6562 14.0156 18.0938C13.151 18.5312 12.2292 18.75 11.25 18.75C10.2708 18.75 9.34896 18.5312 8.48438 18.0938C7.61979 17.6562 6.875 17.0417 6.25 16.25H2.5V20ZM13.4062 15.5625C14.0521 15.1042 14.5 14.5 14.75 13.75H20V2.5H2.5V13.75H7.75C8 14.5 8.44792 15.1042 9.09375 15.5625C9.73958 16.0208 10.4583 16.25 11.25 16.25C12.0417 16.25 12.7604 16.0208 13.4062 15.5625ZM5 11.5625H17.5V9.0625H5V11.5625ZM5 7.1875H17.5V4.6875H5V7.1875Z" fill="#1C1B1F"/>
</svg>
