<svg width="14" height="14" viewBox="0 0 14 14" fill="none" xmlns="http://www.w3.org/2000/svg">
<path d="M0.666992 2.00008C0.666992 1.64646 0.807468 1.30732 1.05752 1.05727C1.30756 0.807224 1.6467 0.666748 2.00033 0.666748H4.18699C4.32685 0.666854 4.46314 0.710946 4.57656 0.792781C4.68998 0.874617 4.7748 0.990052 4.81899 1.12275L5.81766 4.11808C5.86826 4.27031 5.86228 4.43567 5.8008 4.58384C5.73933 4.73201 5.62649 4.85305 5.48299 4.92475L3.97833 5.67808C4.71587 7.31044 6.0233 8.61787 7.65566 9.35542L8.40899 7.85075C8.48069 7.70725 8.60173 7.59441 8.7499 7.53294C8.89807 7.47146 9.06343 7.46548 9.21566 7.51608L12.211 8.51475C12.3438 8.55898 12.4593 8.64389 12.5412 8.75745C12.623 8.871 12.667 9.00744 12.667 9.14741V11.3334C12.667 11.687 12.5265 12.0262 12.2765 12.2762C12.0264 12.5263 11.6873 12.6667 11.3337 12.6667H10.667C5.14433 12.6667 0.666992 8.18942 0.666992 2.66675V2.00008Z" stroke="#FDC003" stroke-width="1.33333" stroke-linecap="square"/>
</svg>
