<svg width="52" height="80" viewBox="0 0 52 80" fill="none" xmlns="http://www.w3.org/2000/svg">
<g filter="url(#filter0_d_192_2380)">
<mask id="path-1-inside-1_192_2380" fill="white">
<path d="M0 0H48V48H0V0Z"/>
</mask>
<path d="M0 0H48V48H0V0Z" fill="white" shape-rendering="crispEdges"/>
<path d="M0 0V-3H-3V0H0ZM48 0H51V-3H48V0ZM48 48V51H51V48H48ZM0 48H-3V51H0V48ZM0 0V3H48V0V-3H0V0ZM48 0H45V48H48H51V0H48ZM48 48V45H0V48V51H48V48ZM0 48H3V0H0H-3V48H0Z" fill="#1C1B1B" mask="url(#path-1-inside-1_192_2380)"/>
<path d="M31.5 24L20.25 30.4952V17.5048L31.5 24Z" fill="#1C1B1B"/>
</g>
<defs>
<filter id="filter0_d_192_2380" x="0" y="0" width="52" height="52" filterUnits="userSpaceOnUse" color-interpolation-filters="sRGB">
<feFlood flood-opacity="0" result="BackgroundImageFix"/>
<feColorMatrix in="SourceAlpha" type="matrix" values="0 0 0 0 0 0 0 0 0 0 0 0 0 0 0 0 0 0 127 0" result="hardAlpha"/>
<feOffset dx="4" dy="4"/>
<feComposite in2="hardAlpha" operator="out"/>
<feColorMatrix type="matrix" values="0 0 0 0 0.992157 0 0 0 0 0.752941 0 0 0 0 0.0117647 0 0 0 1 0"/>
<feBlend mode="normal" in2="BackgroundImageFix" result="effect1_dropShadow_192_2380"/>
<feBlend mode="normal" in="SourceGraphic" in2="effect1_dropShadow_192_2380" result="shape"/>
</filter>
</defs>
</svg>
